<svg id="Capa_1" enable-background="new 0 0 512 512" height="512" viewBox="0 0 512 512" width="512" xmlns="http://www.w3.org/2000/svg"><g><path d="m136 361c-41.353 0-75 33.647-75 75v61c0 8.291 6.709 15 15 15h108.296l7.195-31.221-22.319-90.276-22.376-29.503z" fill="#4b2746"/><path d="m376 361h-10.79l-22.716 30.86-23.032 93.117 8.244 27.023h108.294c8.291 0 15-6.709 15-15v-61c0-41.353-33.647-75-75-75z" fill="#351b33"/><path d="m256 361h-109.204l37.5 151h56.704l15-30 15 30h56.706l37.504-151z" fill="#27b2eb"/><path d="m327.706 512 37.504-151h-109.21v121l15 30z" fill="#008adf"/><path d="m256 391h-15v121h15 15v-121z" fill="#4b2746"/><path d="m256 391h15v121h-15z" fill="#351b33"/><path d="m256 120h-105v136c0 41.814 24.624 77.618 60 94.508v10.492c0 24.853 20.147 45 45 45s45-20.147 45-45v-10.492c35.376-16.89 60-52.694 60-94.508v-136z" fill="#fdc"/><path d="m301 361v-10.492c35.376-16.89 60-52.694 60-94.508v-136h-105v286c24.853 0 45-20.147 45-45z" fill="#ffbfab"/><path d="m256 120h-105v30c0 33.137 26.863 60 60 60h45 45c33.137 0 60-26.863 60-60v-30z" fill="#4b2746"/><path d="m361 150v-30h-105v90h45c33.137 0 60-26.863 60-60z" fill="#351b33"/><path d="m390.956 75c0-8.291-6.665-15-14.956-15-30 0-37.544-10.063-48.003-23.994-12.026-16.04-26.997-36.006-71.997-36.006s-59.971 19.966-71.997 36.006c-10.459 13.931-18.003 23.994-48.003 23.994-8.291 0-14.956 6.709-14.956 15l-.044 7.808c-.273 36.857 4.407 67.192 45 67.192h90 90c40.86 0 45.276-29.85 45-67.192z" fill="#27b2eb"/><path d="m391 82.808-.044-7.808c0-8.291-6.665-15-14.956-15-30 0-37.544-10.063-48.003-23.994-12.026-16.04-26.997-36.006-71.997-36.006v150h90c40.86 0 45.276-29.85 45-67.192z" fill="#008adf"/><circle cx="256" cy="75" fill="#fed843" r="15"/><path d="m271 75c0-8.284-6.714-15-15-15v30c8.286 0 15-6.714 15-15z" fill="#fabe2c"/></g></svg>