<svg id="Capa_1" enable-background="new 0 0 512 512" height="512" viewBox="0 0 512 512" width="512" xmlns="http://www.w3.org/2000/svg"><g><g><path d="m256 512c-1.809 0-3.616-.327-5.335-.98-54.173-20.615-99.537-54.251-134.832-99.973-28.008-36.283-49.68-80.141-64.414-130.354-24.901-84.867-21.434-157.965-21.273-161.035.28-5.394 3.44-10.221 8.271-12.636l210.875-105.439c4.223-2.111 9.193-2.111 13.416 0l210.875 105.438c4.831 2.415 7.991 7.242 8.271 12.636.16 3.07 3.628 76.168-21.273 161.035-14.734 50.214-36.406 94.071-64.414 130.354-35.295 45.722-80.659 79.357-134.832 99.973-1.719.653-3.527.981-5.335.981z" fill="#464b52"/></g><path d="m473.583 107.021-210.875-105.438c-2.111-1.055-4.41-1.583-6.708-1.583v512c1.808 0 3.616-.327 5.334-.98 54.173-20.615 99.537-54.251 134.832-99.973 28.008-36.283 49.68-80.141 64.414-130.354 24.901-84.867 21.434-157.965 21.273-161.035-.279-5.395-3.439-10.222-8.27-12.637z" fill="#292b2f"/><g><path d="m256 446.625c-2.276 0-4.554-.518-6.648-1.554-66.792-33.024-113.696-92.938-139.408-178.076-12.86-42.583-17.503-82.709-19.133-108.871-.375-6.008 2.879-11.657 8.263-14.349l150.219-75.109c4.223-2.11 9.193-2.111 13.416 0l150.22 75.109c5.384 2.691 8.638 8.342 8.263 14.35-1.631 26.164-6.274 66.291-19.134 108.87-25.712 85.138-72.616 145.052-139.408 178.076-2.097 1.036-4.374 1.554-6.65 1.554z" fill="#faf139"/></g><path d="m412.927 143.775-150.22-75.109c-2.111-1.056-4.409-1.583-6.708-1.583v379.542c2.276 0 4.553-.518 6.648-1.554 66.792-33.024 113.696-92.938 139.408-178.076 12.859-42.579 17.503-82.706 19.134-108.87.376-6.008-2.878-11.659-8.262-14.35z" fill="#f5d953"/></g></svg>